# Blender v2.79 (sub 0) OBJ File: ''
# www.blender.org
o Mesh018.001
v -0.366548 1.619401 -1.086908
v -0.652166 1.619401 -1.086908
v -0.652166 0.927890 -1.086908
v -0.366548 0.927890 -1.086908
v -0.653166 0.927890 -1.096470
v -0.653166 0.927890 -1.087908
v -0.653166 1.619401 -1.087908
v -0.653166 1.619401 -1.096470
v -0.652166 1.619401 -1.097470
v -0.366548 1.619401 -1.097470
v -0.366548 0.927890 -1.097470
v -0.652166 0.927890 -1.097470
v -0.652166 0.926890 -1.096470
v -0.366548 0.926890 -1.096470
v -0.366548 0.926890 -1.087908
v -0.652166 0.926890 -1.087908
v -0.366548 1.620401 -1.096470
v -0.652166 1.620401 -1.096470
v -0.652166 1.620401 -1.087908
v -0.366548 1.620401 -1.087908
v -0.366548 1.620401 -1.096470
v -0.365548 1.619401 -1.096470
v -0.366548 1.619401 -1.097470
v -0.366548 0.926890 -1.096470
v -0.366548 0.927890 -1.097470
v -0.365548 0.927890 -1.096470
v -0.652166 0.926890 -1.096470
v -0.653166 0.927890 -1.096470
v -0.652166 0.927890 -1.097470
v -0.652166 1.620401 -1.096470
v -0.652166 1.619401 -1.097470
v -0.653166 1.619401 -1.096470
v -0.652166 1.620401 -1.087908
v -0.653166 1.619401 -1.087908
v -0.652166 1.619401 -1.086908
v -0.652166 0.926890 -1.087908
v -0.652166 0.927890 -1.086908
v -0.653166 0.927890 -1.087908
v -0.366548 0.926890 -1.087908
v -0.365548 0.927890 -1.087908
v -0.366548 0.927890 -1.086908
v -0.366548 1.620401 -1.087908
v -0.366548 1.619401 -1.086908
v -0.365548 1.619401 -1.087908
v -0.652166 1.620401 -1.087908
v -0.652166 1.620401 -1.096470
v -0.653166 1.619401 -1.096470
v -0.653166 1.619401 -1.087908
v -0.653166 0.927890 -1.087908
v -0.653166 0.927890 -1.096470
v -0.652166 0.926890 -1.096470
v -0.652166 0.926890 -1.087908
v -0.365548 1.619401 -1.087908
v -0.365548 1.619401 -1.096470
v -0.366548 1.620401 -1.096470
v -0.366548 1.620401 -1.087908
v -0.366548 0.926890 -1.087908
v -0.366548 0.926890 -1.096470
v -0.365548 0.927890 -1.096470
v -0.365548 0.927890 -1.087908
v -0.365548 1.619401 -1.096470
v -0.365548 0.927890 -1.096470
v -0.366548 0.927890 -1.097470
v -0.366548 1.619401 -1.097470
v -0.652166 1.619401 -1.097470
v -0.652166 0.927890 -1.097470
v -0.653166 0.927890 -1.096470
v -0.653166 1.619401 -1.096470
v -0.653166 1.619401 -1.087908
v -0.653166 0.927890 -1.087908
v -0.652166 0.927890 -1.086908
v -0.652166 1.619401 -1.086908
v -0.366548 1.619401 -1.086908
v -0.366548 0.927890 -1.086908
v -0.365548 0.927890 -1.087908
v -0.365548 1.619401 -1.087908
v -0.652166 0.927890 -1.097470
v -0.366548 0.927890 -1.097470
v -0.366548 0.926890 -1.096470
v -0.652166 0.926890 -1.096470
v -0.652166 1.620401 -1.096470
v -0.366548 1.620401 -1.096470
v -0.366548 1.619401 -1.097470
v -0.652166 1.619401 -1.097470
v -0.366548 1.620401 -1.087908
v -0.652166 1.620401 -1.087908
v -0.652166 1.619401 -1.086908
v -0.366548 1.619401 -1.086908
v -0.652166 0.926890 -1.087908
v -0.366548 0.926890 -1.087908
v -0.366548 0.927890 -1.086908
v -0.652166 0.927890 -1.086908
v -0.365548 1.619401 -1.087908
v -0.365548 0.927890 -1.087908
v -0.365548 0.927890 -1.096470
v -0.365548 1.619401 -1.096470
vt 0.407100 0.983600
vt 0.001400 0.983600
vt 0.001400 0.001400
vt 0.407100 0.001400
vt 0.845600 0.001400
vt 0.833400 0.001400
vt 0.833400 0.983600
vt 0.845600 0.983600
vt 0.409900 0.983600
vt 0.815600 0.983600
vt 0.815600 0.001400
vt 0.409900 0.001400
vt 0.409900 0.998600
vt 0.815600 0.998600
vt 0.815600 0.986400
vt 0.409900 0.986400
vt 0.407100 0.998600
vt 0.001400 0.998600
vt 0.001400 0.986400
vt 0.407100 0.986400
vt 0.407100 0.998600
vt 0.408500 0.998600
vt 0.407100 1.000000
vt 0.815600 0.998600
vt 0.815600 1.000000
vt 0.817000 0.998600
vt 0.409900 0.998600
vt 0.408500 0.998600
vt 0.409900 1.000000
vt 0.001400 0.998600
vt 0.001400 1.000000
vt 0.000000 0.998600
vt 0.001400 0.986400
vt 0.000000 0.986400
vt 0.001400 0.985000
vt 0.409900 0.986400
vt 0.409900 0.985000
vt 0.408500 0.986400
vt 0.815600 0.986400
vt 0.817000 0.986400
vt 0.815600 0.985000
vt 0.407100 0.986400
vt 0.407100 0.985000
vt 0.408500 0.986400
vt 0.001400 0.986400
vt 0.001400 0.998600
vt 0.000000 0.998600
vt 0.000000 0.986400
vt 0.833400 0.001400
vt 0.845600 0.001400
vt 0.845600 0.000000
vt 0.833400 0.000000
vt 0.818400 0.983600
vt 0.830600 0.983600
vt 0.830600 0.985000
vt 0.818400 0.985000
vt 0.815600 0.986400
vt 0.815600 0.998600
vt 0.817000 0.998600
vt 0.817000 0.986400
vt 0.830600 0.983600
vt 0.830600 0.001400
vt 0.832000 0.001400
vt 0.832000 0.983600
vt 0.409900 0.983600
vt 0.409900 0.001400
vt 0.408500 0.001400
vt 0.408500 0.983600
vt 0.833400 0.983600
vt 0.833400 0.001400
vt 0.832000 0.001400
vt 0.832000 0.983600
vt 0.407100 0.983600
vt 0.407100 0.001400
vt 0.408500 0.001400
vt 0.408500 0.983600
vt 0.409900 0.001400
vt 0.815600 0.001400
vt 0.815600 0.000000
vt 0.409900 0.000000
vt 0.001400 0.998600
vt 0.407100 0.998600
vt 0.407100 1.000000
vt 0.001400 1.000000
vt 0.407100 0.986400
vt 0.001400 0.986400
vt 0.001400 0.983600
vt 0.407100 0.983600
vt 0.409900 0.986400
vt 0.815600 0.986400
vt 0.815600 0.985000
vt 0.409900 0.985000
vt 0.818400 0.983600
vt 0.818400 0.001400
vt 0.830600 0.001400
vt 0.830600 0.983600
vn 0.0000 -0.0000 1.0000
vn -1.0000 0.0000 0.0000
vn 0.0000 0.0000 -1.0000
vn 0.0000 -1.0000 0.0000
vn 0.0000 1.0000 0.0000
vn 0.5774 0.5773 -0.5774
vn 0.5774 -0.5774 -0.5774
vn -0.5774 -0.5774 -0.5774
vn -0.5774 0.5773 -0.5774
vn -0.5772 0.5774 0.5775
vn -0.5774 -0.5774 0.5774
vn 0.5774 -0.5774 0.5774
vn 0.5772 0.5774 0.5775
vn -0.7071 0.7071 0.0000
vn -0.7072 0.7070 0.0000
vn -0.7072 -0.7070 0.0000
vn -0.7071 -0.7071 0.0000
vn 0.7071 0.7071 0.0000
vn 0.7071 -0.7071 0.0000
vn 0.7071 0.0000 -0.7072
vn -0.7071 0.0000 -0.7071
vn -0.7071 -0.0000 0.7071
vn 0.7071 -0.0000 0.7072
vn 0.0000 -0.7070 -0.7072
vn 0.0000 -0.7071 -0.7071
vn 0.0000 0.7071 -0.7071
vn 0.0000 0.7071 0.7071
vn 0.0000 -0.7071 0.7071
vn 0.0000 -0.7070 0.7072
vn 1.0000 0.0000 0.0000
s 1
f 1/1/1 2/2/1 3/3/1
f 1/1/1 3/3/1 4/4/1
f 5/5/2 6/6/2 7/7/2
f 5/5/2 7/7/2 8/8/2
f 9/9/3 10/10/3 11/11/3
f 9/9/3 11/11/3 12/12/3
f 13/13/4 14/14/4 15/15/4
f 13/13/4 15/15/4 16/16/4
f 17/17/5 18/18/5 19/19/5
f 17/17/5 19/19/5 20/20/5
f 21/21/6 22/22/6 23/23/6
f 24/24/7 25/25/7 26/26/7
f 27/27/8 28/28/8 29/29/8
f 30/30/9 31/31/9 32/32/9
f 33/33/10 34/34/10 35/35/10
f 36/36/11 37/37/11 38/38/11
f 39/39/12 40/40/12 41/41/12
f 42/42/13 43/43/13 44/44/13
f 45/45/14 46/46/15 47/47/15
f 45/45/14 47/47/15 48/48/14
f 49/49/16 50/50/17 51/51/17
f 49/49/16 51/51/17 52/52/16
f 53/53/18 54/54/18 55/55/18
f 53/53/18 55/55/18 56/56/18
f 57/57/19 58/58/19 59/59/19
f 57/57/19 59/59/19 60/60/19
f 61/61/20 62/62/20 63/63/20
f 61/61/20 63/63/20 64/64/20
f 65/65/21 66/66/21 67/67/21
f 65/65/21 67/67/21 68/68/21
f 69/69/22 70/70/22 71/71/22
f 69/69/22 71/71/22 72/72/22
f 73/73/23 74/74/23 75/75/23
f 73/73/23 75/75/23 76/76/23
f 77/77/24 78/78/25 79/79/25
f 77/77/24 79/79/25 80/80/24
f 81/81/26 82/82/26 83/83/26
f 81/81/26 83/83/26 84/84/26
f 85/85/27 86/86/27 87/87/27
f 85/85/27 87/87/27 88/88/27
f 89/89/28 90/90/29 91/91/29
f 89/89/28 91/91/29 92/92/28
f 93/93/30 94/94/30 95/95/30
f 93/93/30 95/95/30 96/96/30
