# Blender v2.80 (sub 35) OBJ File: 'r3pu_lowpoly.blend'
# www.blender.org
v 2.345415 -10.558842 2.498556
v 2.340719 -10.561556 2.490371
v 2.348907 -10.559585 2.497984
v 2.352401 -10.560328 2.497412
v 2.434436 -10.251105 2.332668
v 2.434283 -10.253535 2.344472
v 2.430921 -10.252240 2.344784
v 2.490057 -10.101283 2.236909
v 2.492000 -10.102097 2.236763
v 2.584590 -9.830493 2.048225
v 2.532685 -9.963724 2.145988
v 2.541018 -9.961506 2.153375
v 2.592905 -9.828319 2.055645
vn -0.1326 -0.9157 0.3793
vn 0.9594 -0.2785 -0.0449
vn 0.6472 -0.5334 -0.5446
vn 0.6474 -0.5335 -0.5444
vn -0.2654 -0.4896 -0.8306
vn 0.6006 0.3076 0.7381
s off
f 1//1 2//1 3//1
f 4//2 5//2 6//3
f 6//4 7//5 8//5
f 9//6 10//6 11//6
l 12 13
