# Blender v2.80 (sub 35) OBJ File: 'r3pu_lowpoly.blend'
# www.blender.org
v 0.512129 -5.368941 4.039555
v 0.514729 -5.370023 4.038453
v 0.503441 -5.364326 4.040413
v 0.500449 -5.363010 4.041663
v 0.504505 -5.363582 4.041932
v 0.501513 -5.362267 4.043182
v 0.511066 -5.369687 4.038036
v 0.513665 -5.370769 4.036933
v 0.086142 -5.087806 4.201729
v 0.084779 -5.087271 4.202422
v 0.083850 -5.087501 4.203187
v 0.080043 -5.089215 4.204072
v 0.080843 -5.088267 4.203042
v 0.085077 -5.088554 4.200211
v 0.084088 -5.086153 4.200916
v 0.082785 -5.088251 4.201670
v 0.081109 -5.088469 4.205589
v 0.081909 -5.087517 4.204559
v -0.512129 -5.368941 4.039555
v -0.514729 -5.370023 4.038453
v -0.503441 -5.364326 4.040413
v -0.500449 -5.363010 4.041663
v -0.504505 -5.363582 4.041932
v -0.501513 -5.362267 4.043182
v -0.511066 -5.369687 4.038036
v -0.513665 -5.370769 4.036933
v -0.086142 -5.087806 4.201729
v -0.084779 -5.087271 4.202422
v -0.083850 -5.087501 4.203187
v -0.080043 -5.089215 4.204072
v -0.080843 -5.088267 4.203042
v -0.085077 -5.088554 4.200211
v -0.084088 -5.086153 4.200916
v -0.082785 -5.088251 4.201670
v -0.081109 -5.088469 4.205589
v -0.081909 -5.087517 4.204559
vt 0.000000 1.000000
vt 0.000000 1.000000
vt 0.000000 1.000000
vt 0.000000 1.000000
vt 0.000000 1.000000
vt 0.000000 1.000000
vt 0.000000 1.000000
vt 0.000000 1.000000
vt 0.000000 1.000000
vt 0.000000 1.000000
vt 0.000000 1.000000
vt 0.000000 1.000000
vt 0.000000 1.000000
vt 0.000000 1.000000
vt 0.000000 1.000000
vt 0.000000 1.000000
vt 0.000000 1.000000
vt 0.000000 1.000000
vt 0.000000 1.000000
vt 0.000000 1.000000
vt 0.000000 1.000000
vt 0.000000 1.000000
vt 0.000000 1.000000
vt 0.000000 1.000000
vt 0.000000 1.000000
vt 0.000000 1.000000
vt 0.000000 1.000000
vt 0.000000 1.000000
vt 0.000000 1.000000
vt 0.000000 1.000000
vt 0.000000 1.000000
vn 0.4706 0.8320 0.2938
vn -0.1528 -0.8410 0.5190
vn 0.4353 0.1407 0.8892
vn -0.5326 -0.3749 -0.7588
vn -0.4793 0.7984 0.3644
vn 0.4702 -0.8532 -0.2258
vn 0.2382 0.3281 -0.9141
vn 0.5294 -0.3519 -0.7720
vn 0.6150 0.5024 -0.6078
vn 0.6151 0.5014 -0.6085
vn 0.4481 0.8449 -0.2922
vn 0.5549 0.0155 -0.8318
vn 0.2629 -0.2162 -0.9403
vn 0.2634 -0.2162 -0.9401
vn -0.8487 -0.4047 0.3404
s off
f 1/1/1 2/2/1 3/3/1
f 4/4/2 5/5/2 6/6/2
f 7/7/3 8/8/3 9/9/3
f 12/10/4 13/11/4 14/12/4
f 17/13/5 18/14/5 19/15/5
f 20/16/6 21/17/6 22/18/6
f 23/19/7 24/20/7 25/21/7
f 26/22/8 27/23/8 28/24/9
f 28/24/10 29/25/11 30/26/11
f 31/27/12 32/28/12 33/29/13
f 33/29/14 34/30/15 35/31/15
l 10 11
l 15 16
